HIERARCHY
ROOT Hips
{
	OFFSET	0.00	0.00	0.00
	CHANNELS 6 Xposition Yposition Zposition Zrotation Xrotation Yrotation
	JOINT LeftUpLeg
	{
		OFFSET	 0.126116	-0.014019	-0.065224
		CHANNELS 3 Zrotation Xrotation Yrotation
		JOINT LeftLeg
		{
			OFFSET	 0.000000	 0.000000	 0.569914
			CHANNELS 3 Zrotation Xrotation Yrotation
			JOINT LeftFoot
			{
				OFFSET	 0.000000	 0.000000	 0.544423
				CHANNELS 3 Zrotation Xrotation Yrotation
				JOINT LeftToeBase
				{
					OFFSET	 0.000000	 0.000000	 0.207117
					CHANNELS 3 Zrotation Xrotation Yrotation
					End Site
					{
						OFFSET	 0.000000	 0.000000	 0.207117
					}
				}
			}
		}
	}
	JOINT RightUpLeg
	{
		OFFSET	-0.124023	-0.008373	-0.065224
		CHANNELS 3 Zrotation Xrotation Yrotation
		JOINT RightLeg
		{
			OFFSET	 0.000000	 0.000000	 0.570047
			CHANNELS 3 Zrotation Xrotation Yrotation
			JOINT RightFoot
			{
				OFFSET	 0.000000	 0.000000	 0.544354
				CHANNELS 3 Zrotation Xrotation Yrotation
				JOINT RightToeBase
				{
					OFFSET	 0.000000	 0.000000	 0.207540
					CHANNELS 3 Zrotation Xrotation Yrotation
					End Site
					{
						OFFSET	 0.000000	 0.000000	 0.207540
					}
				}
			}
		}
	}
	JOINT Spine
	{
		OFFSET	 0.000184	-0.007763	 0.117403
		CHANNELS 3 Zrotation Xrotation Yrotation
		JOINT Spine1
		{
			OFFSET	 0.000000	 0.000000	 0.137269
			CHANNELS 3 Zrotation Xrotation Yrotation
			JOINT Spine2
			{
				OFFSET	 0.000000	 0.000000	 0.156879
				CHANNELS 3 Zrotation Xrotation Yrotation
				JOINT LeftShoulder
				{
					OFFSET	 0.080501	-0.002496	 0.160144
					CHANNELS 3 Zrotation Xrotation Yrotation
					JOINT LeftArm
					{
						OFFSET	 0.000000	 0.000000	 0.164363
						CHANNELS 3 Zrotation Xrotation Yrotation
						JOINT LeftForeArm
						{
							OFFSET	 0.000000	 0.000000	 0.364576
							CHANNELS 3 Zrotation Xrotation Yrotation
							JOINT LeftHand
							{
								OFFSET	 0.000000	 0.000000	 0.360812
								CHANNELS 3 Zrotation Xrotation Yrotation
								JOINT LeftHandIndex1
								{
									OFFSET	 0.000000	 0.000000	 0.086006
									CHANNELS 3 Zrotation Xrotation Yrotation
									JOINT LeftHandIndex2
									{
										OFFSET	 0.000000	 0.000000	 0.047236
										CHANNELS 3 Zrotation Xrotation Yrotation
										JOINT LeftHandIndex3
										{
											OFFSET	-0.004284	-0.000551	 0.038166
											CHANNELS 3 Zrotation Xrotation Yrotation
											End Site
											{
												OFFSET	-0.004284	-0.000551	 0.038166
											}
										}
									}
								}
							}
						}
					}
				}
				JOINT Neck
				{
					OFFSET	 0.000000	 0.000000	 0.176489
					CHANNELS 3 Zrotation Xrotation Yrotation
					JOINT Head
					{
						OFFSET	 0.000000	-0.001747	 0.077940
						CHANNELS 3 Zrotation Xrotation Yrotation
						End Site
						{
							OFFSET	 0.000000	-0.001747	 0.077940
						}
					}
				}
				JOINT RightShoulder
				{
					OFFSET	-0.080363	 0.000306	 0.159706
					CHANNELS 3 Zrotation Xrotation Yrotation
					JOINT RightArm
					{
						OFFSET	 0.000000	 0.000000	 0.164196
						CHANNELS 3 Zrotation Xrotation Yrotation
						JOINT RightForeArm
						{
							OFFSET	 0.000000	 0.000000	 0.365611
							CHANNELS 3 Zrotation Xrotation Yrotation
							JOINT RightHand
							{
								OFFSET	 0.000000	 0.000000	 0.360648
								CHANNELS 3 Zrotation Xrotation Yrotation
								JOINT RightHandIndex1
								{
									OFFSET	 0.000000	 0.000000	 0.069977
									CHANNELS 3 Zrotation Xrotation Yrotation
									JOINT RightHandIndex2
									{
										OFFSET	 0.000000	 0.000000	 0.052305
										CHANNELS 3 Zrotation Xrotation Yrotation
										JOINT RightHandIndex3
										{
											OFFSET	 0.009002	-0.000782	 0.042196
											CHANNELS 3 Zrotation Xrotation Yrotation
											End Site
											{
												OFFSET	 0.009002	-0.000782	 0.042196
											}
										}
									}
								}
							}
						}
					}
				}
			}
		}
	}
}
MOTION
Frames:    10
Frame Time: 0.03333334
-0.037703	 0.266286	 1.014305	 1.313674	 34.266260	-7.035783	 42.190050	-82.678360	-142.302400	 7.156889	-72.628060	 7.231726	 39.249050	 82.808270	-43.228630	-2.385833	 28.452760	 0.000004	 76.748280	-81.430810	-105.559800	-17.975170	-75.306650	-12.422590	 7.966625	 81.805950	 7.953293	 2.384659	 28.388700	-0.000001	-3.545793	 14.862880	 1.704211	-2.858489	 20.923760	 3.821521	 0.364711	-0.039388	 1.989403	-99.214070	 68.208230	 156.623200	 7.615651	-6.740505	-52.306270	-24.845100	 3.213433	-10.284880	-35.670480	-22.887780	-22.831390	-2.027600	 6.559038	 9.033609	-5.188889	 0.308190	 3.541030	-5.234859	 0.342567	 0.430617	 0.533775	 18.518770	-6.454595	 2.460350	-27.581090	 0.605914	 97.494280	 64.670270	-159.031400	-4.711364	 4.798096	 51.758530	 6.166856	 10.640500	 37.387740	 19.529280	-22.614680	 17.973510	 1.803333	 3.979147	-15.098590	 4.898592	 3.004813	-9.310344	 5.224449	 0.395017	 2.014677
-0.036005	 0.266083	 1.027627	 0.834882	 33.232420	-6.345580	 31.712240	-80.912300	-153.002700	 6.037046	-70.804470	 6.097567	 35.166270	 82.451680	-39.025820	-2.385832	 28.452790	-0.000001	 60.102840	-81.130100	-122.078900	-16.727900	-73.262100	-11.103390	 7.217957	 81.159450	 8.583830	 2.384659	 28.388700	-0.000001	-2.308937	 14.680740	 1.706906	-2.819334	 21.400790	 3.903907	 1.149964	-1.075279	 1.459239	-98.930610	 68.317780	 157.329400	 7.887933	-4.736037	-53.197700	-24.583300	 3.222637	-10.303450	-35.801840	-22.335030	-23.046400	-2.027600	 6.559038	 9.033609	-5.188889	 0.308190	 3.541030	-5.234859	 0.342567	 0.430617	-0.063333	 14.951020	-5.008771	 2.809402	-24.128020	 0.061129	 97.302640	 64.486920	-159.691400	-5.475918	 4.934373	 51.182320	 6.466785	 11.274910	 38.683210	 19.397020	-21.844680	 18.918670	 1.803333	 3.979147	-15.098590	 4.898592	 3.004813	-9.310344	 5.224449	 0.395017	 2.014677
-0.033973	 0.265903	 1.043076	 0.540073	 32.051960	-5.749416	 23.896130	-78.606190	-160.836600	 5.244294	-68.545700	 5.270887	 30.156040	 81.804760	-34.025470	-2.385832	 28.452790	-0.000001	 43.832340	-79.902050	-138.008900	-15.620350	-70.883920	-9.908267	 6.488097	 80.360280	 9.154896	 2.384659	 28.388700	-0.000001	-0.992995	 14.487370	 1.715222	-2.736592	 21.851710	 3.882030	 1.803375	-2.188294	 0.968676	-98.427430	 68.835430	 158.122100	 8.465876	-2.029195	-54.379250	-24.291730	 3.219476	-10.304820	-35.922840	-21.889340	-23.511220	-2.027600	 6.559038	 9.033609	-5.188889	 0.308190	 3.541030	-5.234859	 0.342567	 0.430617	-0.564915	 10.534640	-3.950638	 3.226563	-19.836210	-0.333481	 97.040260	 64.065540	-160.736700	-6.576428	 4.758579	 50.617790	 6.603362	 11.936410	 40.245220	 18.787280	-20.774760	 19.828150	 1.803333	 3.979147	-15.098590	 4.898592	 3.004813	-9.310344	 5.224449	 0.395017	 2.014677
-0.031545	 0.265711	 1.059444	 0.255529	 30.662200	-5.120977	 18.564910	-75.847010	-166.225400	 4.595088	-66.102930	 4.583926	 25.972970	 81.090690	-29.830090	-2.385833	 28.452760	 0.000004	 30.785970	-77.777340	-150.686300	-14.814190	-68.281360	-8.993243	 6.205263	 79.564530	 9.298019	 2.384659	 28.388700	-0.000001	 0.247785	 14.303910	 1.711181	-2.744435	 22.250680	 3.901588	 2.347412	-3.512384	 0.502986	-97.574360	 70.045810	 158.985400	 9.491031	 1.395996	-55.670880	-23.727940	 3.206021	-10.291620	-36.309490	-21.562410	-24.612650	-2.027600	 6.559038	 9.033609	-5.188889	 0.308190	 3.541030	-5.234859	 0.342567	 0.430617	-0.924129	 5.073151	-2.798581	 3.453468	-14.645670	-1.112306	 96.707860	 64.288090	-161.395300	-7.859717	 5.788723	 49.725760	 6.077656	 12.268510	 42.034180	 17.974130	-19.741590	 20.282160	 1.803333	 3.979147	-15.098590	 4.898592	 3.004813	-9.310344	 5.224449	 0.395017	 2.014677
-0.029034	 0.265257	 1.074950	 0.085116	 29.287940	-4.538477	 15.161250	-73.075830	-169.675000	 4.282656	-63.733860	 4.215847	 22.936410	 80.389000	-26.811750	-2.385833	 28.452760	 0.000004	 22.064060	-75.263570	-159.019500	-14.327530	-65.715930	-8.380956	 6.204491	 78.835120	 9.283749	 2.384659	 28.388700	-0.000001	 1.408716	 14.159910	 1.659621	-2.716749	 22.544430	 3.821514	 2.768641	-4.735624	 0.197874	-96.385480	 71.957490	 159.713000	 10.312420	 4.940145	-55.577770	-22.997450	 5.166450	-13.254220	-36.682290	-21.418850	-25.566860	-2.027600	 6.559038	 9.033609	-5.188889	 0.308190	 3.541030	-5.234859	 0.342567	 0.430617	-1.162276	-0.114016	-2.299687	 3.761415	-9.691568	-1.486758	 96.110090	 65.304760	-162.100400	-9.092261	 7.686279	 49.435380	 5.382477	 12.465710	 43.847790	 17.466790	-19.368970	 20.725000	 1.803333	 3.979147	-15.098590	 4.898592	 3.004813	-9.310344	 5.224449	 0.395017	 2.014677
-0.025520	 0.263922	 1.094210	 0.040343	 27.578660	-3.806816	 12.157500	-69.543620	-172.700200	 4.143897	-60.727540	 3.980102	 20.032030	 79.433330	-23.933980	-2.385833	 28.452750	 0.000004	 14.633520	-71.719170	-165.927400	-13.414500	-62.420120	-7.339563	 6.326286	 77.968200	 9.055579	 2.384659	 28.388700	-0.000001	 2.796207	 13.973000	 1.495190	-2.693795	 22.882360	 3.600348	 3.177757	-6.274474	-0.026921	-94.591810	 74.742550	 160.477700	 11.620810	 9.340919	-55.525590	-21.844200	 7.657872	-17.268480	-36.984790	-21.420060	-26.712160	-2.027600	 6.559038	 9.033609	-5.188889	 0.308190	 3.541030	-5.234859	 0.342567	 0.430617	-1.415551	-6.711295	-2.260734	 4.146862	-3.396594	-1.676458	 95.193370	 67.082570	-163.023800	-10.803770	 10.575940	 49.512180	 4.405247	 12.635980	 46.279590	 16.963170	-19.399800	 21.159100	 1.803333	 3.979147	-15.098590	 4.898592	 3.004813	-9.310344	 5.224449	 0.395017	 2.014677
-0.022457	 0.261751	 1.111377	 0.133606	 26.006950	-3.203589	 9.892990	-66.243580	-174.905700	 4.073018	-57.959950	 3.874579	 17.696990	 78.502290	-21.636130	-2.385833	 28.452750	 0.000004	 10.062170	-68.234540	-170.011900	-12.029140	-59.404950	-5.932051	 6.304126	 77.259290	 8.616044	 2.384659	 28.388700	-0.000001	 3.992871	 13.768310	 1.325391	-2.694088	 23.120250	 3.353949	 3.445005	-7.663353	-0.134927	-92.876880	 77.137210	 161.049500	 13.213120	 12.801450	-55.961360	-20.730830	 9.305616	-20.196780	-36.922380	-21.519430	-27.704760	-2.027600	 6.559038	 9.033609	-5.188889	 0.308190	 3.541030	-5.234859	 0.342567	 0.430617	-1.657924	-12.831330	-2.599982	 4.419728	 2.403908	-1.736740	 94.371480	 68.712960	-163.837300	-12.525560	 13.073380	 49.677550	 3.534299	 12.776750	 48.589410	 16.495190	-19.602820	 21.340930	 1.803333	 3.979147	-15.098590	 4.898592	 3.004813	-9.310344	 5.224449	 0.395017	 2.014677
-0.018731	 0.256649	 1.133078	 0.788900	 24.517510	-2.767360	 8.633629	-62.310040	-175.868700	 4.111175	-54.151690	 3.627065	 16.111860	 77.163190	-19.918270	-2.385833	 28.452750	 0.000004	 6.294075	-64.022610	-172.902600	-10.296030	-55.439480	-4.244632	 6.826342	 76.076440	 7.523295	 2.384659	 28.388700	-0.000001	 5.587110	 12.758560	 0.775552	-2.809966	 22.948710	 2.939018	 3.695485	-9.179608	-0.400445	-93.743610	 75.600740	 162.879400	 14.602370	 13.706990	-52.883580	-18.850040	 12.116120	-25.572470	-35.445400	-21.217920	-28.770530	-2.027600	 6.559038	 9.033609	-5.188889	 0.308190	 3.541030	-5.234859	 0.342567	 0.430617	-1.668185	-14.325720	-1.302536	 4.619877	 3.826277	-2.531183	 93.867320	 69.456050	-164.721000	-14.327480	 15.437610	 48.102530	 2.364113	 12.892020	 51.750480	 15.572660	-19.529510	 21.270830	 1.803333	 3.979147	-15.098590	 4.898592	 3.004813	-9.310344	 5.224449	 0.395017	 2.014677
-0.016473	 0.250166	 1.154512	 1.320545	 23.238630	-2.456529	 7.212767	-58.403340	-176.964500	 3.906566	-50.116180	 3.319909	 13.586220	 75.667300	-17.315390	-2.385833	 28.452750	 0.000004	 3.483027	-59.862720	-174.884400	-8.841690	-51.186540	-2.881002	 6.280878	 74.586300	 7.386679	 2.384659	 28.388700	-0.000001	 7.147972	 11.470160	 0.553515	-2.646011	 22.656020	 2.472584	 3.767521	-10.641630	-0.482159	-94.244330	 74.321460	 164.308400	 16.183180	 14.349300	-50.575530	-17.008220	 13.916190	-29.720500	-33.676480	-21.074870	-28.902650	-2.027600	 6.559038	 9.033609	-5.188889	 0.308190	 3.541030	-5.234859	 0.342567	 0.430617	-1.752448	-15.044550	-0.987338	 4.781991	 4.695025	-2.592273	 93.928420	 68.209500	-165.967100	-15.693410	 16.058980	 45.494560	 1.150196	 13.046620	 55.446580	 14.294210	-19.146520	 21.107940	 1.803333	 3.979147	-15.098590	 4.898592	 3.004813	-9.310344	 5.224449	 0.395017	 2.014677
-0.014968	 0.242922	 1.174763	 1.832515	 21.940140	-2.062508	 6.031962	-54.380890	-177.931200	 3.733874	-46.052090	 2.990699	 11.438610	 74.165070	-14.999630	-2.385833	 28.452750	 0.000004	 1.164292	-55.529660	-176.458200	-7.607059	-46.824160	-1.795060	 5.632906	 73.152980	 7.353440	 2.384659	 28.388700	-0.000001	 8.666308	 10.103310	 0.357453	-2.379099	 22.251910	 1.950698	 3.696197	-12.218130	-0.517931	-94.600750	 73.013980	 165.636700	 17.816290	 14.706740	-48.371540	-15.088780	 15.306810	-33.611320	-31.751960	-21.030530	-28.295080	-2.027600	 6.559038	 9.033609	-5.188889	 0.308190	 3.541030	-5.234859	 0.342567	 0.430617	-1.827333	-15.232380	-0.866580	 4.816767	 5.026546	-2.510826	 94.002440	 66.385480	-167.324600	-17.059230	 16.219470	 43.088080	 0.038034	 13.012610	 58.719550	 12.927520	-18.740220	 20.780830	 1.803333	 3.979147	-15.098590	 4.898592	 3.004813	-9.310344	 5.224449	 0.395017	 2.014677
